<svg width="16" height="16" viewBox="0 0 16 16" fill="none" xmlns="http://www.w3.org/2000/svg">
<circle cx="8" cy="8" r="8" fill="#C30000"/>
<path d="M3.83 11V4.46H5.92C6.26 4.46 6.57 4.49 6.85 4.55C7.13667 4.60333 7.38333 4.69333 7.59 4.82C7.80333 4.94 7.96667 5.10333 8.08 5.31C8.2 5.51667 8.26 5.77 8.26 6.07C8.26 6.38333 8.18 6.67333 8.02 6.94C7.86 7.20667 7.63667 7.39 7.35 7.49V7.53C7.71 7.61 8.00667 7.78 8.24 8.04C8.48 8.29333 8.6 8.64 8.6 9.08C8.6 9.40667 8.53667 9.69 8.41 9.93C8.28333 10.17 8.10667 10.37 7.88 10.53C7.66 10.69 7.39667 10.81 7.09 10.89C6.78333 10.9633 6.45 11 6.09 11H3.83ZM4.99 7.16H5.82C6.28 7.16 6.61 7.07667 6.81 6.91C7.01667 6.74333 7.12 6.52 7.12 6.24C7.12 5.92 7.01333 5.69333 6.8 5.56C6.58667 5.42667 6.26667 5.36 5.84 5.36H4.99V7.16ZM4.99 10.1H5.97C6.45 10.1 6.82 10.0133 7.08 9.84C7.34 9.66 7.47 9.38667 7.47 9.02C7.47 8.67333 7.34333 8.42333 7.09 8.27C6.83667 8.11 6.46333 8.03 5.97 8.03H4.99V10.1ZM10.9268 11.12C10.4935 11.12 10.1435 10.99 9.8768 10.73C9.61013 10.4633 9.4768 10.1133 9.4768 9.68C9.4768 9.42 9.53013 9.19 9.6368 8.99C9.75013 8.78333 9.92346 8.60667 10.1568 8.46C10.3968 8.31333 10.6968 8.19 11.0568 8.09C11.4235 7.99 11.8601 7.91333 12.3668 7.86C12.3601 7.73333 12.3401 7.61333 12.3068 7.5C12.2801 7.38 12.2301 7.27667 12.1568 7.19C12.0901 7.09667 12.0001 7.02667 11.8868 6.98C11.7735 6.92667 11.6335 6.9 11.4668 6.9C11.2268 6.9 10.9901 6.94667 10.7568 7.04C10.5301 7.13333 10.3068 7.24667 10.0868 7.38L9.6668 6.61C9.94013 6.43667 10.2468 6.28667 10.5868 6.16C10.9268 6.03333 11.2935 5.97 11.6868 5.97C12.3001 5.97 12.7568 6.15333 13.0568 6.52C13.3635 6.88 13.5168 7.40333 13.5168 8.09V11H12.5668L12.4868 10.46H12.4468C12.2268 10.6467 11.9901 10.8033 11.7368 10.93C11.4901 11.0567 11.2201 11.12 10.9268 11.12ZM11.2968 10.22C11.4968 10.22 11.6768 10.1733 11.8368 10.08C12.0035 9.98667 12.1801 9.85333 12.3668 9.68V8.58C12.0335 8.62 11.7535 8.67333 11.5268 8.74C11.3001 8.80667 11.1168 8.88333 10.9768 8.97C10.8368 9.05 10.7368 9.14333 10.6768 9.25C10.6168 9.35667 10.5868 9.47 10.5868 9.59C10.5868 9.81 10.6535 9.97 10.7868 10.07C10.9201 10.17 11.0901 10.22 11.2968 10.22Z" fill="white"/>
</svg>
