<?xml version="1.0" encoding="UTF-8"?>
<svg width="20px" height="21px" viewBox="0 0 20 21" version="1.1" xmlns="http://www.w3.org/2000/svg" xmlns:xlink="http://www.w3.org/1999/xlink">
    <!-- Generator: sketchtool 64 (101010) - https://sketch.com -->
    <title>D93A5BAE-43FD-4EA5-B0D2-F68CCC5C34A0@1.00x</title>
    <desc>Created with sketchtool.</desc>
    <g id="Vilkårsvurdering" stroke="none" stroke-width="1" fill="none" fill-rule="evenodd">
        <g id="Aksjonspunkt-" transform="translate(-1945.000000, -1086.000000)">
            <g id="X⚙️/⚙️status-icon/-warning-circle" transform="translate(1945.000000, 1086.000000)">
                <path d="M10.1706591,-0.00338461538 L9.99239413,-0.00161868832 C7.31407141,0.0460613425 4.79314363,1.14535094 2.89483892,3.09405146 C0.982620852,5.0568794 -0.0443593851,7.62630328 0.00172863571,10.3299376 C0.0973830185,15.9252775 4.41487402,20.3083085 9.83065126,20.3083085 L10.0071771,20.3065426 C15.6125239,20.2085336 20.0952361,15.5729751 19.9987122,9.97586924 C19.9030578,4.38052933 15.5855668,-0.00338461538 10.1706591,-0.00338461538 Z" id="Shape" fill="#FFA733" fill-rule="nonzero"></path>
                <g id="Group" stroke-width="1" fill-rule="evenodd" transform="translate(8.750000, 4.230769)" fill="#3E3832">
                    <path d="M1.27263815,11.8460127 C1.26513856,11.8460127 1.25763898,11.8460127 1.2501394,11.8460127 C0.568927279,11.8460127 0.0114582794,11.2926588 0.000208904935,10.5996974 C-0.0122904,9.89912096 0.537679017,9.32038391 1.22764065,9.30896147 C1.23514023,9.30896147 1.24263981,9.30769231 1.2501394,9.30769231 C1.93135152,9.30769231 2.48757058,9.86231531 2.50006989,10.5552768 C2.51256919,11.2558532 1.96134985,11.8333211 1.27263815,11.8460127 Z" id="Path"></path>
                    <path d="M1.25,0 C1.71023729,0 2.08333333,0.378835981 2.08333333,0.846153846 L2.08333333,6.76923077 C2.08333333,7.23654863 1.71023729,7.61538462 1.25,7.61538462 C0.789762708,7.61538462 0.416666667,7.23654863 0.416666667,6.76923077 L0.416666667,0.846153846 C0.416666667,0.378835981 0.789762708,0 1.25,0 Z" id="Rectangle" fill-rule="nonzero"></path>
                </g>
            </g>
        </g>
    </g>
</svg>